<?xml version="1.0" encoding="UTF-8" standalone="no"?>
<!DOCTYPE svg PUBLIC "-//W3C//DTD SVG 1.1//EN" "http://www.w3.org/Graphics/SVG/1.1/DTD/svg11.dtd">
<svg width="100%" height="100%" viewBox="0 0 1926 1716" version="1.1" xmlns="http://www.w3.org/2000/svg" xmlns:xlink="http://www.w3.org/1999/xlink" xml:space="preserve" xmlns:serif="http://www.serif.com/" style="fill-rule:evenodd;clip-rule:evenodd;stroke-linecap:round;stroke-linejoin:round;stroke-miterlimit:1.5;">
    <g id="Mesa-de-trabajo1" serif:id="Mesa de trabajo1" transform="matrix(1.92638,0,0,1.19814,-7464.59,-355.196)">
        <rect x="3874.92" y="296.455" width="999.369" height="1431.7" style="fill:none;"/>
        <clipPath id="_clip1">
            <rect x="3874.92" y="296.455" width="999.369" height="1431.7"/>
        </clipPath>
        <g clip-path="url(#_clip1)">
            <g id="Cara" transform="matrix(0.519108,0,0,0.834625,3398.44,-46.8464)">
                <circle cx="1880.32" cy="1268.58" r="648.434" style="fill:none;stroke:black;stroke-width:8.48px;"/>
            </g>
            <g id="Oreja-der" serif:id="Oreja der" transform="matrix(0.167187,0,0,0.273995,4449.62,752.075)">
                <circle cx="1880.32" cy="1268.58" r="648.434" style="fill:none;stroke:black;stroke-width:26.07px;"/>
            </g>
            <g id="Oreja-izq" serif:id="Oreja izq" transform="matrix(0.167187,0,0,0.273995,3670.58,752.075)">
                <circle cx="1880.32" cy="1268.58" r="648.434" style="fill:none;stroke:black;stroke-width:26.07px;"/>
            </g>
            <g id="Barbilla" transform="matrix(0.105438,0,0,0.164707,4176.28,1210.06)">
                <circle cx="1880.32" cy="1268.58" r="648.434" style="fill:none;stroke:black;stroke-width:42.34px;"/>
            </g>
            <g id="Nariz" transform="matrix(0.191954,5.52107e-21,2.66537e-21,0.399205,4014.24,637.17)">
                <path d="M1879.45,1088.93L2034.02,1398.08L1724.88,1398.08L1879.45,1088.93Z" style="fill:none;stroke:black;stroke-width:19.83px;"/>
            </g>
            <g id="Ceja-der" serif:id="Ceja der" transform="matrix(0.128034,0,0,0.312335,4316.92,615.343)">
                <path d="M2312.74,858.683L1137.02,858.683C1097.12,820.123 1076.45,778.104 1076.45,735.571C1076.45,693.037 1097.12,651.018 1137.02,612.458L2312.74,612.458C2352.64,651.018 2373.32,693.037 2373.32,735.571C2373.32,778.104 2352.64,820.123 2312.74,858.683Z" style="fill:none;stroke:black;stroke-width:26.75px;"/>
            </g>
            <g id="Ceja-Izq" serif:id="Ceja Izq" transform="matrix(0.128034,0,0,0.312335,3995.83,615.343)">
                <path d="M2312.74,858.683L1137.02,858.683C1097.12,820.123 1076.45,778.104 1076.45,735.571C1076.45,693.037 1097.12,651.018 1137.02,612.458L2312.74,612.458C2352.64,651.018 2373.32,693.037 2373.32,735.571C2373.32,778.104 2352.64,820.123 2312.74,858.683Z" style="fill:none;stroke:black;stroke-width:26.75px;"/>
            </g>
            <g id="Boca" transform="matrix(-0.501568,9.83384e-17,-1.74797e-17,-0.227474,5317.2,1542.63)">
                <path d="M1879.45,1088.93L2034.02,1398.08L1724.88,1398.08L1879.45,1088.93Z" style="fill:none;stroke:black;stroke-width:11.94px;"/>
            </g>
            <g id="P贸mulo-der" serif:id="P贸mulo der" transform="matrix(0.0743128,0,0,0.116086,4405.03,1076.6)">
                <circle cx="1880.32" cy="1268.58" r="648.434" style="fill:none;stroke:black;stroke-width:60.07px;"/>
            </g>
            <g id="P贸mulo-izq" serif:id="P贸mulo izq" transform="matrix(0.0743128,0,0,0.116086,4069.94,1076.6)">
                <circle cx="1880.32" cy="1268.58" r="648.434" style="fill:none;stroke:black;stroke-width:60.07px;"/>
            </g>
            <g id="Pupila-der" serif:id="Pupila der" transform="matrix(0.0996178,0,0,0.155616,4357.45,825.487)">
                <circle cx="1880.32" cy="1268.58" r="648.434" style="fill:none;stroke:black;stroke-width:44.81px;"/>
            </g>
            <g id="Pupila-izq" serif:id="Pupila izq" transform="matrix(0.0996178,0,0,0.155616,4022.36,825.487)">
                <circle cx="1880.32" cy="1268.58" r="648.434" style="fill:none;stroke:black;stroke-width:44.81px;"/>
            </g>
            <g id="Ojo-der" serif:id="Ojo der" transform="matrix(3.17862e-17,0.834625,-0.707515,6.96548e-17,5346.59,-4.48605)">
                <path d="M1230.95,993.126C1297.68,1020.17 1351.85,1073.67 1351.85,1133.3C1351.85,1192.93 1297.68,1246.43 1230.95,1273.47C1164.23,1246.43 1110.05,1192.93 1110.05,1133.3C1110.05,1073.67 1164.23,1020.17 1230.95,993.126Z" style="fill:none;stroke:black;stroke-width:7.09px;"/>
            </g>
            <g id="Ojo-izq" serif:id="Ojo izq" transform="matrix(3.17862e-17,0.834625,-0.707515,6.96548e-17,5011.5,-4.48605)">
                <path d="M1230.95,993.126C1297.68,1020.17 1351.85,1073.67 1351.85,1133.3C1351.85,1192.93 1297.68,1246.43 1230.95,1273.47C1164.23,1246.43 1110.05,1192.93 1110.05,1133.3C1110.05,1073.67 1164.23,1020.17 1230.95,993.126Z" style="fill:none;stroke:black;stroke-width:7.09px;"/>
            </g>
            <g id="Pelo" transform="matrix(0.550031,0.000152787,9.50279e-05,0.834625,3425.24,-33.3689)">
                <path d="M1206.7,912.971L2246.46,912.781" style="fill:none;stroke:black;stroke-width:8.23px;"/>
            </g>
            <g id="Gafas" transform="matrix(0.519108,0,0,0.834625,3479.13,-9.60757)">
                <g transform="matrix(0.322066,0,0,0.328285,801.716,823.702)">
                    <circle cx="1880.32" cy="1268.58" r="648.434" style="fill:none;stroke:black;stroke-width:26.07px;"/>
                </g>
                <g transform="matrix(0.219858,-0.00239737,-0.00239737,0.999993,1353.37,331.777)">
                    <path d="M1205.09,909.684L2241.38,912.868" style="fill:none;stroke:black;stroke-width:11.74px;"/>
                </g>
                <g transform="matrix(0.322066,0,0,0.328285,1447.22,820.634)">
                    <circle cx="1880.32" cy="1268.58" r="648.434" style="fill:none;stroke:black;stroke-width:26.07px;"/>
                </g>
            </g>
            <g id="Boina" transform="matrix(0.519108,0,0,0.834625,3481.82,-9.97962)">
                <path d="M2281.56,885.169L1168.2,885.169C1108.15,839.945 1076.45,788.249 1076.45,735.571C1076.45,574.569 1367,443.855 1724.88,443.855C2082.76,443.855 2373.32,574.569 2373.32,735.571C2373.32,788.249 2341.61,839.945 2281.56,885.169Z" style="fill:none;stroke:black;stroke-width:8.48px;"/>
            </g>
            <g id="Espiral" transform="matrix(4.43231e-17,-0.868543,0.540203,7.12631e-17,4386.23,729.723)">
                <path d="M298.171,0C298.171,-164.676 164.676,-298.171 -0,-298.171C-156.834,-298.171 -283.973,-171.032 -283.973,-14.199C-283.973,134.381 -163.525,254.828 -14.946,254.828C125.379,254.828 239.135,141.072 239.135,0.747C239.135,-131.323 132.071,-238.388 -0,-238.388C-123.816,-238.388 -224.189,-138.015 -224.189,-14.199C-224.189,101.363 -130.508,195.045 -14.946,195.045C92.362,195.044 179.351,108.055 179.351,0.747C179.351,-98.306 99.053,-178.604 -0,-178.604C-90.799,-178.604 -164.405,-104.997 -164.405,-14.199C-164.405,68.346 -97.49,135.261 -14.946,135.261C59.344,135.261 119.568,75.037 119.568,0.747C119.567,-65.288 66.035,-118.82 -0,-118.82C-57.781,-118.82 -104.622,-71.979 -104.622,-14.199C-104.622,35.328 -64.472,75.477 -14.946,75.477C26.326,75.477 59.784,42.019 59.784,0.747C59.784,-32.27 33.018,-59.036 -0,-59.036C-24.763,-59.036 -44.838,-38.962 -44.838,-14.199C-44.838,2.31 -31.455,15.693 -14.946,15.693C-6.692,15.693 0,9.002 -0,0.747" style="fill:none;stroke:black;stroke-width:8.15px;"/>
            </g>
            <g id="Engranaje" transform="matrix(0.755056,0,0,1.11557,2677.4,-574.678)">
                <path d="M2306.32,788.349L2325.42,887.126C2362.4,893.135 2398.64,903.447 2433.49,917.877L2496.55,842.478C2531.83,859.514 2565.48,880.143 2597.02,904.075L2567.05,999.763C2596.25,1024.6 2622.78,1052.77 2646.17,1083.78L2736.28,1051.96C2758.81,1085.45 2778.24,1121.18 2794.28,1158.65L2723.28,1225.61C2736.87,1262.62 2746.58,1301.1 2752.24,1340.37L2845.25,1360.66C2849,1401.63 2849,1442.88 2845.25,1483.85L2752.24,1504.14C2746.58,1543.41 2736.87,1581.89 2723.28,1618.9L2794.28,1685.86C2778.24,1723.33 2758.81,1759.06 2736.28,1792.55L2646.17,1760.74C2622.78,1791.74 2596.25,1819.91 2567.05,1844.75L2597.02,1940.44C2565.48,1964.37 2531.83,1985 2496.55,2002.03L2433.49,1926.63C2398.64,1941.06 2362.4,1951.38 2325.42,1957.38L2306.32,2056.16C2267.74,2060.14 2228.89,2060.14 2190.31,2056.16L2171.2,1957.38C2134.22,1951.38 2097.98,1941.06 2063.13,1926.63L2000.07,2002.03C1964.79,1985 1931.14,1964.37 1899.61,1940.44L1929.57,1844.75C1900.37,1819.91 1873.84,1791.74 1850.45,1760.74L1760.35,1792.55C1737.81,1759.06 1718.38,1723.33 1702.34,1685.86L1773.34,1618.9C1759.75,1581.89 1750.04,1543.41 1744.38,1504.14L1651.37,1483.85C1647.62,1442.88 1647.62,1401.63 1651.37,1360.66L1744.38,1340.37C1750.04,1301.1 1759.75,1262.62 1773.34,1225.61L1702.34,1158.65C1718.38,1121.18 1737.81,1085.45 1760.35,1051.96L1850.45,1083.78C1873.84,1052.77 1900.37,1024.6 1929.57,999.763L1899.61,904.075C1931.14,880.143 1964.79,859.514 2000.07,842.478L2063.13,917.877C2097.98,903.447 2134.22,893.135 2171.2,887.126L2190.31,788.349C2228.89,784.368 2267.74,784.368 2306.32,788.349ZM2248.31,1294.88C2314.51,1294.88 2368.26,1351.95 2368.26,1422.26C2368.26,1492.56 2314.51,1549.63 2248.31,1549.63C2182.11,1549.63 2128.36,1492.56 2128.36,1422.26C2128.36,1351.95 2182.11,1294.88 2248.31,1294.88Z" style="fill:none;stroke:black;stroke-width:6.07px;"/>
            </g>
        </g>
    </g>
</svg>
